<?xml version="1.0" encoding="iso-8859-1"?>
<!-- Generator: Adobe Illustrator 19.0.0, SVG Export Plug-In . SVG Version: 6.00 Build 0)  -->
<svg version="1.1" id="Capa_1" xmlns="http://www.w3.org/2000/svg" xmlns:xlink="http://www.w3.org/1999/xlink" x="0px" y="0px"
	 viewBox="0 0 488.928 488.928" style="enable-background:new 0 0 488.928 488.928;" xml:space="preserve">
<g>
	<g>
		<path d="M362.264,99.828l36.8-4.6c5.1-0.6,8.6-5.5,7.6-10.5c-0.9-4.6-5.2-7.7-9.8-7.1l-36.8,4.6c-5.1,0.6-8.6,5.5-7.6,10.5
			C353.364,97.328,357.664,100.428,362.264,99.828z"/>
		<path d="M260.664,5.828c-5,2-7.1,7.8-4.9,12.5c-12.3,38.6-44.1,68.3-64.4,84.3l-4.2-7.7l-51.1,28.1c-10.2,5.6-13.9,18.3-8.3,28.5
			l4.5,8.2l-5.6,3.1c-3.4,1.9-4.6,6.1-2.8,9.5l12.7,23c1.9,3.4,6.1,4.6,9.5,2.8l5.6-3.1l3.9,7.1c5.6,10.2,18.3,13.9,28.5,8.3
			l4.7-2.6l17.7,19.4c-18.6,7.1-27.6,34.5-27.6,34.5c-1.4,5.1-1.3,10-0.9,13.8c0.1,0.9,0.2,1.8,0.4,2.5c0.1,1.1-0.2,3-0.9,5.2
			c-1.5,5.3-5.2,9.7-10.1,12.4l-77.4,42v-166.8h5.9h3c-0.3-5.8,1-11.5,3.9-16.5c-2.7-9-2.3-18.5,0.6-27.1h-7.5h-17.5
			c-17.7,0-32,14.3-32,32v224.4c0,17.7,14.3,32,32,32h130.3v35.7h-25.4c-4.2,0-7.7,3.4-7.7,7.7v22.2c0,4.2,3.4,7.7,7.7,7.7h122.4
			c4.2,0,7.7-3.4,7.7-7.7v-22.2c0-4.2-3.4-7.7-7.7-7.7h-25.4v-35.7h130.3c17.7,0,32-14.3,32-32v-224.4c0-17.7-14.3-32-32-32h-27.7
			h-18.9l9.6,17.5c4.6,8.3,5.2,17.7,2.6,26.1h6.7h16.1v200.8h-215.3l51-28c9.3-4,24.6-11,39.2-19.4c9.7-4.4,19.7-9.8,26.6-15.8
			c23.6-20.4,6.7-35.3,6.7-35.3c8.5-18.8-7.2-27.8-7.2-27.8c5.5-20.4-13.3-24.7-13.3-24.7s1-14.6-12.4-17.8
			c-11.3-2.7-27.1,7-36.1,13.7l-22.1-23.7l19-10.4l-4.2-7.7c24.4-8.7,66.5-19.5,105.7-9.2c2.8,4.4,8.7,5.8,13.2,2.6
			c3.9-2.8,4.8-8.2,2.5-12.4l-26-47.3c8.2-9.6,10.1-23.6,3.7-35.3c-6.5-11.8-19.3-17.7-31.8-15.9l-25.8-46.9
			C270.064,6.228,265.064,4.028,260.664,5.828z M174.464,190.328l-26.6-48.5l30.6-16.8l26.6,48.5L174.464,190.328z"/>
		<path d="M361.564,2.428c-3.7-3.5-9.7-3.2-13,0.8l-23.6,28.6c-3,3.6-2.7,8.9,0.7,12.1c3.7,3.5,9.7,3.2,13-0.8l23.7-28.6
			C365.264,10.928,364.964,5.628,361.564,2.428z"/>
		<path d="M342.964,66.328c2.4,4.3,7.8,5.9,12.1,3.5l31.9-17.5c4.3-2.4,5.9-7.8,3.5-12.1l-0.1-0.2c-2.4-4.3-7.8-5.9-12.1-3.5
			l-31.9,17.5c-4.3,2.4-5.9,7.8-3.5,12.1L342.964,66.328z"/>
	</g>
</g>
<g>
</g>
<g>
</g>
<g>
</g>
<g>
</g>
<g>
</g>
<g>
</g>
<g>
</g>
<g>
</g>
<g>
</g>
<g>
</g>
<g>
</g>
<g>
</g>
<g>
</g>
<g>
</g>
<g>
</g>
</svg>
